HIERARCHY
ROOT Hips
{
	OFFSET -0.179506 -22.333345 2.821913
	CHANNELS 6 Xposition Yposition Zposition Zrotation Yrotation Xrotation 
	JOINT LeftUpLeg
	{
		OFFSET 6.951974 -9.140623 -0.681533
		CHANNELS 3 Zrotation Yrotation Xrotation
		JOINT LeftLeg
		{
			OFFSET 3.427654 -37.519855 -0.449580
			CHANNELS 3 Zrotation Yrotation Xrotation
			JOINT LeftFoot
			{
				OFFSET -1.359570 -39.796059 -4.369333
				CHANNELS 3 Zrotation Yrotation Xrotation
				JOINT LeftToe
				{
					OFFSET 2.635814 -5.579078 11.928840
					CHANNELS 3 Zrotation Yrotation Xrotation
					End Site
					{
						OFFSET 0.000000 0.000000 0.000000
					}
				}
			}
		}
	}
	JOINT RightUpLeg
	{
		OFFSET -6.767048 -9.052170 -0.431982
		CHANNELS 3 Zrotation Yrotation Xrotation
		JOINT RightLeg
		{
			OFFSET -3.829005 -38.256897 -0.885003
			CHANNELS 3 Zrotation Yrotation Xrotation
			JOINT RightFoot
			{
				OFFSET 1.577377 -39.841461 -4.231180
				CHANNELS 3 Zrotation Yrotation Xrotation
				JOINT RightToe
				{
					OFFSET -2.537174 -4.814398 12.334795
					CHANNELS 3 Zrotation Yrotation Xrotation
					End Site
					{
						OFFSET 0.000000 0.000000 0.000000
					}
				}
			}
		}
	}
	JOINT Spine
	{
		OFFSET -0.253288 10.896323 -2.669631
		CHANNELS 3 Zrotation Yrotation Xrotation
		JOINT Spine1
		{
			OFFSET 0.548704 13.518043 0.109247
			CHANNELS 3 Zrotation Yrotation Xrotation
			JOINT Spine2
			{
				OFFSET 0.145701 5.292222 2.542457
				CHANNELS 3 Zrotation Yrotation Xrotation
				JOINT Neck
				{
					OFFSET -0.277840 21.387037 -4.285703
					CHANNELS 3 Zrotation Yrotation Xrotation
					JOINT Head
					{
						OFFSET 0.515184 6.496960 5.134897
						CHANNELS 3 Zrotation Yrotation Xrotation
						End Site
						{
							OFFSET 0.000000 0.000000 0.000000
						}
					}
				}
				JOINT LeftShoulder
				{
					OFFSET 7.884473 12.174932 -3.408961
					CHANNELS 3 Zrotation Yrotation Xrotation
					JOINT LeftArm
					{
						OFFSET 9.097692 3.046888 -0.886815
						CHANNELS 3 Zrotation Yrotation Xrotation
						JOINT LeftForeArm
						{
							OFFSET 25.961220 -1.277207 -2.745643
							CHANNELS 3 Zrotation Yrotation Xrotation
							JOINT LeftHand
							{
								OFFSET 24.923361 0.898606 -0.117091
								CHANNELS 3 Zrotation Yrotation Xrotation
								End Site
								{
									OFFSET 0.000000 0.000000 0.000000
								}
							}
						}
					}
				}
				JOINT RightShoulder
				{
					OFFSET -8.175920 11.883285 -3.861528
					CHANNELS 3 Zrotation Yrotation Xrotation
					JOINT RightArm
					{
						OFFSET -9.601238 3.255117 -0.914307
						CHANNELS 3 Zrotation Yrotation Xrotation
						JOINT RightForeArm
						{
							OFFSET -25.374195 -1.332924 -2.140099
							CHANNELS 3 Zrotation Yrotation Xrotation
							JOINT RightHand
							{
								OFFSET -25.529810 0.777228 -0.555919
								CHANNELS 3 Zrotation Yrotation Xrotation
								End Site
								{
									OFFSET 0.000000 0.000000 0.000000
								}
							}
						}
					}
				}
			}
		}
	}
}
MOTION
Frames: 12
Frame Time: 0.033333
-11.434451 221.336365 94.699303 -145.959801 6.965529 80.585924 23.223624 6.148172 -1.847621 -5.072098 1.721239 34.961683 2.521158 8.714535 -26.180751 nan nan nan -9.691250 -7.122254 -21.440959 4.416659 -5.814271 41.901170 9.644917 5.215121 -11.976530 nan nan nan -6.619683 0.923370 16.585618 -0.573462 -5.528030 1.496806 1.918548 -0.435245 -4.870431 3.122614 -9.765282 4.990546 14.793478 -10.988776 22.316244 -17.149536 -39.672477 4.156914 -63.560121 -49.118344 22.897464 43.017485 -56.473366 -60.244147 20.856704 0.058902 -60.085136 10.806257 40.649736 8.836872 44.052233 32.277269 25.190970 41.923833 74.525612 74.511506 5.344283 12.435058 12.047388 
-11.527166 221.323090 94.588943 -146.793797 6.840558 80.741101 23.142114 6.080333 -1.996496 -5.061755 2.208218 35.536826 2.780677 9.013717 -25.979443 nan nan nan -9.351539 -6.751836 -22.120485 4.570236 -6.156727 42.476119 9.106454 4.301534 -12.004683 nan nan nan -6.745669 1.025969 16.202037 0.044043 -5.789253 1.924856 2.150928 -0.267796 -5.036986 2.789335 -8.735957 4.556352 14.384163 -11.180781 22.076075 -15.319266 -41.242874 2.987511 -63.540127 -50.547188 24.155897 36.551583 -57.534093 -54.582115 18.708009 -0.005839 -59.271979 11.409656 41.916421 9.325229 45.344725 32.989913 26.683077 42.485815 75.327572 74.764386 4.893970 12.093251 13.127655 
-11.634852 221.281677 94.488930 -147.408444 6.763624 80.900621 22.964110 6.060388 -2.289862 -4.887957 2.403900 36.184157 2.940074 9.256507 -25.827875 nan nan nan -9.053713 -6.530606 -22.693241 4.395530 -6.779057 42.811085 8.518931 3.434111 -12.027855 nan nan nan -6.766683 1.018815 16.379742 0.712481 -6.138594 1.680856 2.337664 -0.059768 -5.133438 2.576426 -7.445882 3.760365 13.689690 -11.899687 22.286046 -13.453048 -42.804817 1.885977 -63.091884 -52.137918 25.257846 29.949376 -58.531624 -47.305792 16.606910 -0.796282 -59.725997 12.185946 42.968327 9.784383 46.830556 33.547986 27.983591 42.701724 75.753604 76.297594 3.886356 13.011443 12.739108 
-11.772058 221.269058 94.402351 -148.178619 6.630375 81.024239 22.707734 6.177753 -2.381006 -4.508734 2.759143 36.687553 2.868839 9.216751 -25.931395 nan nan nan -8.767084 -6.371211 -23.280010 3.773135 -7.462682 43.029546 8.050158 3.124490 -11.754532 nan nan nan -6.711311 1.094884 16.642686 1.267309 -6.377654 1.265203 2.570507 0.117357 -5.158123 2.308978 -6.087101 3.011688 12.960214 -12.668436 22.557361 -11.322252 -44.189947 0.578609 -63.933381 -53.780695 26.914995 25.055638 -58.926252 -41.249917 13.839241 -2.421006 -59.923893 13.132843 43.837256 10.558227 47.912095 33.995386 28.839753 43.311061 76.381711 77.558880 3.360890 14.386780 12.040110 
-11.904948 221.261581 94.324211 -149.077689 6.462464 81.131252 22.460640 6.237893 -2.306528 -4.228129 3.243109 36.989172 2.813350 9.314432 -26.262441 nan nan nan -8.539842 -6.123372 -23.832784 3.243611 -8.007280 43.044912 7.744223 3.022295 -11.462654 nan nan nan -6.754107 1.617010 16.606169 1.962285 -6.400245 1.237543 2.969427 -0.018705 -5.073150 1.891550 -4.719124 2.273780 12.311357 -13.478978 22.463905 -9.082693 -46.042866 -0.866686 -64.232268 -55.265573 28.206331 21.494215 -59.744390 -35.442635 11.870010 -4.700171 -57.896201 13.612618 44.664920 10.964002 48.748848 33.806987 29.306178 44.414988 77.176828 79.613088 3.042122 13.977505 11.024022 
-12.036896 221.277069 94.266388 -149.932185 6.298051 81.255046 22.237795 6.204904 -2.196438 -3.963832 3.812348 37.214186 2.649166 9.332480 -26.503978 nan nan nan -8.309142 -5.844655 -24.234774 2.674996 -8.448907 42.778780 7.544808 3.167517 -11.165264 nan nan nan -6.744354 1.977111 16.691643 2.594017 -6.500110 1.084786 3.382942 -0.032420 -5.048572 1.268906 -3.262239 1.738589 11.662862 -14.272209 22.234647 -6.387279 -47.594302 -2.731870 -65.771189 -56.746417 29.952359 19.571825 -60.386665 -30.934733 9.148394 -6.624692 -55.049853 13.835917 45.275345 11.505704 49.674765 33.561032 29.564558 45.883552 77.902844 82.326608 1.723680 12.542797 9.869564 
-12.178456 221.315781 94.224571 -150.702327 6.152449 81.385244 22.008437 6.311435 -2.090781 -3.448067 4.450599 37.479253 2.173491 8.906710 -26.755013 nan nan nan -8.133503 -5.624898 -24.480422 2.121298 -8.875451 42.358766 7.501248 3.591140 -10.961680 nan nan nan -6.668886 2.175124 16.743307 3.217155 -6.673687 1.091747 3.742091 -0.006943 -5.186793 0.793904 -1.569977 1.074906 10.615807 -15.279397 22.423470 -3.550091 -48.752529 -4.516151 -68.352869 -58.033670 32.479044 19.455810 -61.504897 -26.693008 7.965887 -9.391958 -49.909593 14.618435 45.607415 12.385422 50.188921 33.645612 29.145184 49.746470 78.170905 87.328546 -0.208069 13.919672 8.866588 
-12.328734 221.364105 94.221230 -151.422131 5.897986 81.613199 21.590255 6.374104 -2.049944 -2.923034 5.112368 37.701013 1.723862 8.547105 -26.975455 nan nan nan -8.119217 -5.399177 -24.713708 1.824456 -8.943975 41.844359 7.574044 4.004031 -10.739543 nan nan nan -6.779645 2.271416 16.886128 3.929427 -6.947129 0.926360 4.090413 0.086222 -5.421056 0.266965 0.134693 0.298795 9.524884 -16.133878 23.009986 -0.555928 -49.454714 -6.564647 -71.951427 -59.224585 36.066574 20.666173 -62.670180 -23.136397 7.033464 -12.123301 -44.058168 15.661725 45.468071 12.886462 50.519559 33.336114 28.738819 54.331021 78.444661 92.758660 0.633861 14.675008 7.154460 
-12.464749 221.421295 94.235710 -151.981566 5.582328 81.945017 21.068694 6.353331 -2.154427 -2.370388 5.766086 37.936703 1.441538 8.156574 -27.104428 nan nan nan -8.186756 -5.279925 -24.936988 1.562167 -8.835031 41.339161 7.628897 4.420630 -10.507568 nan nan nan -7.115946 2.258433 16.906286 4.727138 -7.368069 0.786983 4.468193 0.350231 -5.577127 -0.377862 1.666247 -0.433755 8.703776 -16.877167 23.580349 2.508570 -49.893017 -8.807376 -75.352756 -60.611062 39.404222 22.101373 -64.442261 -20.272097 4.968979 -14.188569 -36.519256 16.523970 44.973779 12.978970 51.033913 32.867246 28.406052 61.104268 78.660910 100.113944 2.757174 14.895224 7.469451 
-12.608384 221.481522 94.254143 -152.529568 5.343788 82.174989 20.690231 6.548979 -2.147696 -1.907166 6.226077 38.153326 1.081972 7.745460 -27.275096 nan nan nan -8.225168 -5.124525 -25.079842 1.276995 -8.637466 40.973313 7.648808 4.947378 -10.369490 nan nan nan -7.333864 2.101037 16.773618 5.475782 -7.783704 0.829596 4.740147 0.816956 -5.521684 -1.024006 3.194660 -0.885346 8.072697 -17.753824 23.556015 5.322968 -50.281035 -10.961465 -77.988893 -62.190073 42.152697 22.376617 -66.478312 -16.218740 3.226608 -16.334382 -28.627394 17.299833 44.312980 13.175257 51.126273 32.137878 27.721359 67.227181 78.443452 106.520491 0.932740 14.900993 5.994663 
-12.805135 221.558624 94.282196 -153.139117 5.133309 82.324171 20.374781 6.888399 -1.955248 -1.496638 6.641258 38.265026 0.844603 7.457746 -27.425956 nan nan nan -8.261177 -5.005510 -25.207834 1.133093 -8.153929 40.756082 7.765059 5.543402 -10.213094 nan nan nan -7.399856 1.828778 16.769102 6.140277 -8.007484 0.528029 4.875249 1.383766 -5.220097 -1.555247 4.465092 -1.438793 7.216202 -18.400814 23.739496 7.613694 -50.463703 -12.860458 -81.777709 -63.874151 45.870865 22.374462 -68.301945 -11.497690 1.132615 -17.340192 -22.559114 18.316119 43.239015 13.456544 50.919970 31.406647 26.646822 73.069395 78.356703 114.066176 -0.638251 15.746850 4.333478 
-13.020097 221.673477 94.309097 -153.744204 4.887616 82.542030 20.045576 7.220902 -1.706920 -1.114161 7.117305 38.198583 0.796833 7.080030 -27.582737 nan nan nan -8.338081 -4.771111 -25.394436 1.112254 -7.517384 40.511564 8.194328 6.017198 -10.095808 nan nan nan -7.246430 1.584196 16.827822 6.575685 -7.983106 -0.127058 4.917871 1.673656 -4.928911 -2.109652 5.341954 -2.013650 6.312109 -18.593132 24.355371 9.403574 -50.477456 -14.603021 -86.173956 -65.331160 50.596556 21.577654 -70.072079 -6.772625 0.489026 -18.180842 -17.015655 19.590683 42.287750 14.367417 50.475009 30.214356 25.739724 76.933228 79.024137 118.141826 -3.203191 17.662268 3.681671 
